<?xml version="1.0" encoding="UTF-8" standalone="no"?>
<svg
   width="24"
   height="24"
   viewBox="0 0 24 24"
   fill="none"
   version="1.1"
   id="svg192"
   sodipodi:docname="comment.svg"
   xmlns:inkscape="http://www.inkscape.org/namespaces/inkscape"
   xmlns:sodipodi="http://sodipodi.sourceforge.net/DTD/sodipodi-0.dtd"
   xmlns="http://www.w3.org/2000/svg"
   xmlns:svg="http://www.w3.org/2000/svg">
  <sodipodi:namedview
     id="namedview194"
     pagecolor="#ffffff"
     bordercolor="#000000"
     borderopacity="0.25"
     inkscape:showpageshadow="2"
     inkscape:pageopacity="0.0"
     inkscape:pagecheckerboard="0"
     inkscape:deskcolor="#d1d1d1"
     showgrid="false" />
  <g
     clip-path="url(#clip0_55_629)"
     id="g185"
     style="fill:#e24352;fill-opacity:1">
    <path
       fill-rule="evenodd"
       clip-rule="evenodd"
       d="m 7.75877,1 h 8.48263 c 0.8049,-1.2e-5 1.4693,-2.3e-5 2.0105,0.04419 0.5621,0.04593 1.0788,0.14449 1.5641,0.39178 0.7527,0.3835 1.3646,0.99542 1.7481,1.74807 0.2473,0.48533 0.3459,1.00204 0.3918,1.56413 0.0442,0.54119 0.0442,1.20555 0.0442,2.01051 v 5.48262 c 0,0.805 0,1.4693 -0.0442,2.0105 -0.0459,0.5621 -0.1445,1.0788 -0.3918,1.5642 -0.3835,0.7526 -0.9954,1.3645 -1.7481,1.748 -0.4853,0.2473 -1.002,0.3459 -1.5641,0.3918 C 17.7107,18 17.0464,18 16.2414,18 h -2.1552 c -0.1163,0 -0.174,2e-4 -0.216,0.0019 l -0.0031,2e-4 -0.0024,0.0018 c -0.0331,0.0258 -0.0773,0.0629 -0.1661,0.1381 L 8.30439,22.7063 C 8.2982,22.7115 8.29187,22.7169 8.28542,22.7224 8.19831,22.7962 8.08784,22.8897 7.98599,22.9612 7.89432,23.0256 7.63595,23.2034 7.2755,23.2107 6.89007,23.2186 6.52259,23.0481 6.27961,22.7488 6.05238,22.4689 6.02121,22.1568 6.01112,22.0453 5.99992,21.9214 6,21.7766 6.00006,21.6624 c 10e-6,-0.0085 10e-6,-0.0167 10e-6,-0.0248 V 17.9938 C 5.65873,17.9839 5.36554,17.959 5.09588,17.8965 3.60932,17.5515 2.44857,16.3908 2.10361,14.9042 1.99947,14.4554 1.99971,13.9415 2.00004,13.2488 c 1e-5,-0.0393 3e-5,-0.0792 3e-5,-0.1198 V 6.7587 C 2.00006,5.95373 2.00005,5.28937 2.04427,4.74817 2.09019,4.18608 2.18876,3.66937 2.43605,3.18404 2.81954,2.43139 3.43146,1.81947 4.18411,1.43597 4.66945,1.18868 5.18615,1.09012 5.74825,1.04419 6.28944,0.999977 6.9538,0.999988 7.75877,1 Z M 5.91111,3.03755 C 5.4727,3.07337 5.24849,3.1383 5.09209,3.21799 4.71577,3.40973 4.40981,3.7157 4.21806,4.09202 4.13837,4.24842 4.07344,4.47262 4.03762,4.91104 4.00085,5.36113 4.00007,5.94342 4.00007,6.8 v 6.329 c 0,0.8655 0.00653,1.1281 0.05177,1.3231 0.17248,0.7433 0.75286,1.3237 1.49614,1.4961 C 5.74294,15.9935 6.00554,16 6.87104,16 h 0.0019 c 0.00912,0 0.03962,-10e-5 0.06957,0.0011 0.03718,0.0015 0.11358,0.0059 0.20622,0.0274 0.4088,0.0948 0.72801,0.414 0.82287,0.8228 0.0215,0.0927 0.02588,0.1691 0.02736,0.2063 0.00119,0.0299 0.00113,0.0604 0.00112,0.0695 l -1e-5,0.0019 v 3.2149 l 4.40663,-3.7287 c 0.0112,-0.0095 0.0227,-0.0192 0.0345,-0.0292 0.1286,-0.1094 0.2906,-0.2471 0.4811,-0.3492 0.1654,-0.0885 0.3424,-0.1534 0.5258,-0.1926 0.2114,-0.0452 0.424,-0.0447 0.5929,-0.0443 C 14.0564,16 14.0715,16 14.0862,16 h 2.1139 c 0.8566,0 1.4388,-8e-4 1.8889,-0.0376 0.4385,-0.0358 0.6627,-0.1007 0.8191,-0.1804 0.3763,-0.1917 0.6822,-0.4977 0.874,-0.874 0.0797,-0.1564 0.1446,-0.3806 0.1804,-0.819 0.0368,-0.4501 0.0376,-1.0324 0.0376,-1.889 V 6.8 c 0,-0.85658 -8e-4,-1.43887 -0.0376,-1.88896 C 19.9267,4.47262 19.8618,4.24842 19.7821,4.09202 19.5903,3.7157 19.2844,3.40973 18.9081,3.21799 18.7517,3.1383 18.5275,3.07337 18.089,3.03755 17.6389,3.00078 17.0567,3 16.2001,3 H 7.80007 C 6.94349,3 6.3612,3.00078 5.91111,3.03755 Z"
       fill="#8b8b8b"
       id="path183"
       style="fill:#e24352;fill-opacity:1" />
  </g>
  <defs
     id="defs190">
    <clipPath
       id="clip0_55_629">
      <rect
         width="24"
         height="24"
         fill="#ffffff"
         id="rect187"
         x="0"
         y="0" />
    </clipPath>
  </defs>
</svg>
