<?xml version="1.0" encoding="UTF-8" standalone="no"?>
<!-- Created with Inkscape (http://www.inkscape.org/) -->

<svg
   version="1.1"
   id="svg4312"
   width="36"
   height="36"
   viewBox="0 0 36 36"
   xmlns="http://www.w3.org/2000/svg"
   xmlns:svg="http://www.w3.org/2000/svg">
  <defs
     id="defs4316" />
  <g
     id="g4318">
    <path
       style="fill:#8b8b8b;fill-opacity:1;stroke-width:0.0468921"
       d="M 10.614312,29.933364 C 9.8961112,29.800301 9.2835622,29.482554 8.728124,28.954941 8.1923439,28.446003 7.8666068,27.896922 7.6526803,27.142114 c -0.082496,-0.29107 -0.086354,-0.699765 -0.086354,-9.143848 0,-8.444082 0.00386,-8.8527778 0.086354,-9.143847 C 7.8666068,8.0996104 8.1923439,7.5505291 8.728124,7.0415907 9.314476,6.4846135 9.9909569,6.1515392 10.757235,6.0425309 c 0.265235,-0.037732 1.978214,-0.049026 5.933297,-0.039121 l 5.560405,0.013926 0.229529,0.1419159 c 0.496774,0.3071524 0.677353,0.9297353 0.421403,1.4528773 -0.06949,0.1420233 -0.194728,0.3103881 -0.278316,0.3741442 -0.354633,0.270492 -0.07223,0.258437 -6.054455,0.258437 -6.122321,0 -5.741984,-0.019773 -6.191858,0.3218957 -0.146353,0.1111518 -0.282855,0.2765335 -0.3922758,0.4752702 l -0.1678169,0.304798 v 8.6515918 8.651592 l 0.111747,0.211014 c 0.1885197,0.355986 0.3636617,0.540483 0.6715597,0.707433 l 0.295211,0.16007 5.677648,0.02344 5.677647,0.02344 0.229517,0.141916 c 0.496765,0.307162 0.677338,0.929743 0.421392,1.452877 -0.06949,0.142023 -0.194728,0.310388 -0.278316,0.374144 -0.355169,0.2709 -0.06419,0.258812 -6.118455,0.254206 -4.342528,-0.0033 -5.634533,-0.01757 -5.890786,-0.06505 z M 21.60512,24.404682 c -0.412682,-0.147477 -0.685199,-0.494602 -0.729762,-0.929552 -0.05564,-0.543116 -0.104241,-0.479632 1.922089,-2.510939 l 1.836004,-1.840515 -4.547735,-0.001 c -4.473806,-10e-4 -4.551164,-0.0026 -4.758748,-0.09655 -0.448132,-0.202853 -0.676466,-0.549787 -0.676466,-1.027831 0,-0.478045 0.228334,-0.824979 0.676466,-1.027832 0.207585,-0.09397 0.28494,-0.09553 4.759322,-0.09655 l 4.548308,-0.001 -1.815183,-1.817072 c -1.234604,-1.235887 -1.838211,-1.87283 -1.887181,-1.991408 -0.156143,-0.378086 -0.03077,-0.972574 0.261763,-1.241236 0.17237,-0.158303 0.51204,-0.293817 0.739316,-0.294956 0.499411,-0.0025 0.365251,-0.117392 3.443715,2.949106 1.66875,1.662264 2.893757,2.918862 2.952468,3.028606 0.138904,0.259649 0.138904,0.725087 0,0.984734 -0.05871,0.109744 -1.283718,1.366343 -2.952468,3.028607 -2.45423,2.44469 -2.879049,2.848647 -3.045132,2.895586 -0.247824,0.07005 -0.512741,0.06634 -0.726776,-0.01014 z"
       id="path4685" />
  </g>
</svg>
