<?xml version="1.0" encoding="UTF-8" standalone="no"?>
<svg
   width="36"
   height="36"
   viewBox="0 0 36 36"
   fill="none"
   version="1.1"
   id="svg295"
   xmlns="http://www.w3.org/2000/svg"
   xmlns:svg="http://www.w3.org/2000/svg">
  <defs
     id="defs299" />
  <path
     fill-rule="evenodd"
     clip-rule="evenodd"
     d="m 13.636361,9.2727233 c -0.602487,0 -1.090908,0.488423 -1.090908,1.0909097 v 15.272726 c 0,0.602509 0.488421,1.090909 1.090908,1.090909 h 8.727273 c 0.602509,0 1.090909,-0.4884 1.090909,-1.090909 V 10.363633 c 0,-0.6024867 -0.4884,-1.0909097 -1.090909,-1.0909097 z M 25.636362,11.454618 V 24.54534 c 0.507381,-4.36e-4 0.854179,-0.0038 1.126036,-0.02596 0.29629,-0.02421 0.406144,-0.06536 0.460144,-0.09284 0.20531,-0.104617 0.37211,-0.271417 0.476729,-0.476727 0.02749,-0.054 0.06862,-0.163852 0.09284,-0.460143 0.0252,-0.309166 0.02607,-0.715201 0.02607,-1.34422 v -8.290908 c 0,-0.628964 -8.5e-4,-1.035086 -0.02607,-1.344175 -0.02421,-0.296367 -0.06535,-0.406243 -0.09284,-0.460178 -0.104619,-0.205264 -0.271419,-0.372153 -0.476729,-0.47675 -0.054,-0.02748 -0.163854,-0.06858 -0.460144,-0.09279 -0.271857,-0.02221 -0.618655,-0.02555 -1.126036,-0.02602 z m -0.186219,15.27265 h 0.01015 c 0.575017,0 1.071162,0 1.479708,-0.03338 0.431346,-0.03524 0.860291,-0.113019 1.273091,-0.323346 0.615819,-0.313746 1.116436,-0.814363 1.430182,-1.430182 0.210328,-0.412799 0.288109,-0.841745 0.323347,-1.273089 0.03338,-0.408546 0.03338,-0.904691 0.03338,-1.47971 v -8.375096 c 0,-0.575061 0,-1.071153 -0.03338,-1.479774 -0.03524,-0.431283 -0.11302,-0.860251 -0.323348,-1.273029 -0.313749,-0.615809 -0.814366,-1.1164727 -1.430185,-1.4302387 -0.412801,-0.210317 -0.841745,-0.28812 -1.273092,-0.323357 -0.408545,-0.03338 -0.904691,-0.03337 -1.479818,-0.03335 h -0.01004 C 25.000907,8.0016064 23.788579,7.0909043 22.363634,7.0909043 h -8.727273 c -1.424966,0 -2.63723,0.9107021 -3.086497,2.181819 h -0.01009 c -0.5750741,-2.3e-5 -1.0711754,-3.3e-5 -1.4798079,0.03336 -0.43128,0.03524 -0.8602472,0.11304 -1.2730255,0.323357 C 7.1711334,9.9432063 6.6704715,10.44387 6.3567042,11.059676 6.1463878,11.472455 6.0685844,11.901423 6.033348,12.332702 5.999962,12.741323 5.999981,13.237436 6,13.81251 v 8.37495 c -1.84e-5,0.575128 -3.6e-5,1.071274 0.033349,1.479819 0.035236,0.431346 0.1130398,0.860291 0.3233563,1.273091 0.3137673,0.615818 0.8144291,1.116436 1.4302364,1.430181 0.4127782,0.210329 0.8417454,0.288109 1.2730254,0.323347 0.4086218,0.03338 0.9047238,0.03338 1.4797869,0.03338 h 0.01011 c 0.449268,1.271127 1.661531,2.181818 3.086498,2.181818 h 8.727273 c 1.424944,0 2.637272,-0.910691 3.086509,-2.181818 z M 10.363634,24.54534 V 11.454619 c -0.5073811,4.8e-4 -0.8542037,0.0038 -1.1259926,0.02602 -0.2963673,0.0242 -0.4062327,0.06532 -0.4601782,0.09279 -0.2052654,0.104595 -0.3721527,0.271485 -0.4767383,0.476747 -0.027491,0.05394 -0.068595,0.163812 -0.092804,0.460179 -0.025255,0.309087 -0.026106,0.715211 -0.026106,1.344175 v 8.290908 c 0,0.62902 8.484e-4,1.035054 0.026106,1.344219 0.024207,0.296291 0.065312,0.406145 0.092804,0.460145 0.1045856,0.205309 0.2714729,0.372108 0.4767383,0.476726 0.053946,0.02749 0.1638109,0.06862 0.4601782,0.09284 0.2717889,0.02214 0.6186115,0.02554 1.1259926,0.02596 z"
     fill="#e24352"
     id="path293"
     style="fill:#8b8b8b;fill-opacity:1;stroke-width:1.09091" />
</svg>
