<svg width="24" height="24" viewBox="0 0 24 24" fill="none" xmlns="http://www.w3.org/2000/svg">
<g clip-path="url(#clip0_6478_8045)">
<path fill-rule="evenodd" clip-rule="evenodd" d="M16.3519 1.55673C17.0869 1.25225 17.9129 1.25225 18.648 1.55673C18.9739 1.69173 19.2422 1.89001 19.4913 2.10732C19.7279 2.31371 19.9955 2.58134 20.3057 2.89151L21.1083 3.69413C21.4185 4.00429 21.6861 4.27192 21.8925 4.50854C22.1098 4.75768 22.3081 5.02596 22.4431 5.35189C22.7476 6.08698 22.7476 6.91291 22.4431 7.64799C22.3081 7.97392 22.1098 8.24221 21.8925 8.49134C21.6861 8.72797 21.4185 8.9956 21.1083 9.30577L9.54692 20.8671C9.53934 20.8747 9.53157 20.8825 9.52362 20.8905C9.43633 20.9781 9.32652 21.0883 9.19824 21.1819C9.03089 21.304 8.84558 21.3994 8.64894 21.4646C8.49821 21.5146 8.3447 21.5399 8.22269 21.56C8.21158 21.5618 8.20072 21.5636 8.19015 21.5654L5.73622 21.9744C5.30166 22.0468 4.92157 22.1102 4.60809 22.1384C4.28339 22.1677 3.92355 22.1718 3.5618 22.0559C2.79294 21.8095 2.1904 21.2069 1.944 20.4381C1.82807 20.0763 1.83212 19.7165 1.86141 19.3918C1.8897 19.0783 1.95306 18.6982 2.02551 18.2636L2.43449 15.8097C2.43625 15.7991 2.43804 15.7883 2.43988 15.7772C2.45999 15.6551 2.4853 15.5016 2.53528 15.3509C2.60049 15.1543 2.69586 14.969 2.81796 14.8016C2.91156 14.6733 3.02176 14.5635 3.10935 14.4762C3.11733 14.4683 3.12513 14.4605 3.13271 14.4529L14.6941 2.89156C15.0043 2.58137 15.2719 2.31372 15.5085 2.10732C15.7576 1.89001 16.0259 1.69173 16.3519 1.55673ZM17.8826 3.40449C17.6376 3.303 17.3623 3.303 17.1172 3.40449C17.0756 3.42173 16.9954 3.4643 16.8232 3.61452C16.6442 3.77066 16.4248 3.98922 16.0857 4.32837L15.4141 4.99994L18.9999 8.58573L19.6715 7.91416C20.0106 7.57501 20.2292 7.35568 20.3853 7.17668C20.5355 7.00446 20.5781 6.92424 20.5954 6.88263C20.6969 6.6376 20.6969 6.36229 20.5954 6.11726C20.5781 6.07564 20.5355 5.99542 20.3853 5.82321C20.2292 5.6442 20.0106 5.42488 19.6715 5.08573L18.9141 4.32837C18.575 3.98922 18.3557 3.77066 18.1766 3.61452C18.0044 3.4643 17.9242 3.42173 17.8826 3.40449ZM17.5857 9.99994L13.9999 6.41416L4.54692 15.8671C4.48678 15.9273 4.45718 15.957 4.43622 15.9793C4.43568 15.9799 4.43516 15.9804 4.43466 15.981C4.43451 15.9817 4.43437 15.9824 4.43421 15.9832C4.42827 16.0132 4.42126 16.0546 4.40728 16.1385L4.00416 18.5572C3.92414 19.0373 3.87401 19.3422 3.85332 19.5715C3.83651 19.7579 3.84759 19.8217 3.84922 19.8296C3.89868 19.9818 4.01802 20.1012 4.17021 20.1506C4.17822 20.1523 4.24205 20.1633 4.42838 20.1465C4.65766 20.1258 4.96253 20.0757 5.44265 19.9957L7.86136 19.5926C7.94525 19.5786 7.98664 19.5716 8.01664 19.5656C8.01741 19.5655 8.01816 19.5653 8.01888 19.5652C8.01941 19.5647 8.01996 19.5642 8.02054 19.5636C8.04281 19.5427 8.07257 19.5131 8.13271 19.4529L17.5857 9.99994Z" fill="#ebebeb"/>
</g>
<defs>
<clipPath id="clip0_6478_8045">
<rect width="24" height="24" fill="white"/>
</clipPath>
</defs>
</svg>
