<?xml version="1.0" encoding="UTF-8" standalone="no"?>
<!-- Created with Inkscape (http://www.inkscape.org/) -->

<svg
   version="1.1"
   id="svg2"
   width="32"
   height="32"
   viewBox="0 0 32 32"
   sodipodi:docname="picture.svg"
   inkscape:export-filename="picture.svg"
   inkscape:export-xdpi="96"
   inkscape:export-ydpi="96"
   inkscape:version="1.2.1 (9c6d41e410, 2022-07-14)"
   xmlns:inkscape="http://www.inkscape.org/namespaces/inkscape"
   xmlns:sodipodi="http://sodipodi.sourceforge.net/DTD/sodipodi-0.dtd"
   xmlns="http://www.w3.org/2000/svg"
   xmlns:svg="http://www.w3.org/2000/svg">
  <sodipodi:namedview
     id="namedview6"
     pagecolor="#ffffff"
     bordercolor="#000000"
     borderopacity="0.25"
     inkscape:showpageshadow="2"
     inkscape:pageopacity="0.0"
     inkscape:pagecheckerboard="0"
     inkscape:deskcolor="#d1d1d1"
     showgrid="false"
     inkscape:zoom="12.953125"
     inkscape:cx="22.349819"
     inkscape:cy="12.429433"
     inkscape:window-width="1920"
     inkscape:window-height="1009"
     inkscape:window-x="1912"
     inkscape:window-y="1"
     inkscape:window-maximized="1"
     inkscape:current-layer="svg2" />
  <defs
     id="defs6">
    <inkscape:path-effect
       effect="offset"
       id="path-effect289"
       is_visible="true"
       lpeversion="1.2"
       linejoin_type="miter"
       unit="mm"
       offset="0.075"
       miter_limit="4"
       attempt_force_join="false"
       update_on_knot_move="true" />
  </defs>
  <g
     id="g8"
     inkscape:path-effect="#path-effect289">
    <path
       style="fill:#8b8b8b;fill-opacity:1;stroke-width:0.0585938"
       d="m 18.474609,1.9726562 c -6.611253,0 -9.0337343,-0.00772 -10.0761715,0.076172 C 7.5527052,2.1168896 7.3648304,2.3369668 7.2558594,2.4023438 6.580852,2.8073129 6.149655,3.342134 5.8769531,4.0976562 l -0.1542969,0.421875 -0.015625,7.4042968 c -0.0089,4.044497 -0.00319,7.537648 0.033203,7.939453 0.051813,0.572167 0.093963,0.683667 0.3945312,1.128907 0.5131351,0.760119 1.096611,1.216657 1.875,1.433593 0.2687393,0.07489 2.5359224,0.08574 10.4492184,0.08984 6.636841,0.0034 9.070237,0.01165 10.109375,-0.06055 0.779248,-0.05414 0.96689,-0.225901 1.115235,-0.30664 0.429329,-0.233671 0.958671,-0.779156 1.199218,-1.230469 0.140541,-0.263679 0.270939,-0.453995 0.326172,-1.039063 0.07902,-0.836985 0.07031,-2.655821 0.07031,-7.578125 0,-4.8226459 -0.02574,-7.614222 -0.06445,-7.8183591 -0.225013,-1.1864889 -1.265696,-2.228173 -2.447266,-2.4472657 -0.202215,-0.037496 -3.932898,-0.0625 -10.292969,-0.0625 z m -0.105468,2.4550782 c 6.831148,-0.0119 9.954607,0.00685 10.039062,0.03125 0.165401,0.047792 0.376487,0.2836189 0.404297,0.4394531 0.01884,0.1054255 0.02287,2.3701568 0.01367,5.0976563 l -0.01563,4.2011722 -1.759766,-2.056641 C 25.809488,10.690886 24.703724,9.4156004 24.494141,9.21875 24.095499,8.8443281 23.669815,8.6523232 23.134766,8.609375 c -0.711565,-0.057118 -1.392064,0.1731434 -1.902344,0.6484375 -0.13376,0.1245884 -1.297852,1.4910065 -2.554688,3.0058595 -0.981742,1.183286 -1.810777,2.164957 -2.15039,2.548828 -0.02811,-0.02567 -0.04641,-0.04077 -0.08008,-0.07227 C 16.28067,14.5844 16.0593,14.368293 15.820312,14.128906 15.102906,13.410301 14.848273,13.192729 14.505859,13.039062 13.791827,12.718624 12.888576,12.76517 12.21875,13.160156 c -0.16541,0.09754 -1.227598,1.127627 -2.4121094,2.306641 l -1.671875,1.662109 0.00195,-5.761718 C 8.1379487,5.2094697 8.1524409,4.9491374 8.2207031,4.7988281 8.2659012,4.6993045 8.3593929,4.5841711 8.4335938,4.53125 l 0.1230468,-0.087891 z m -6.126953,1.3046875 c -0.706932,0.0026 -1.408791,0.2801803 -1.958985,0.8300781 -1.4487077,1.4479231 -0.864194,3.898383 1.083985,4.568359 0.734196,0.25249 1.71117,0.137781 2.36914,-0.279297 0.36406,-0.230772 0.84928,-0.783411 1.025391,-1.1699214 C 15.248847,8.6125395 15.025835,7.3891257 14.195312,6.5527344 13.65148,6.0050595 12.949488,5.7298189 12.242188,5.7324219 Z m 0.01562,2.4335937 c 0.09825,1.597e-4 0.263676,0.1179212 0.304688,0.2421875 0.04359,0.1320749 0.0091,0.2582247 -0.126953,0.3652344 -0.160311,0.1261008 -0.482093,0.011578 -0.525391,-0.1855469 -0.03988,-0.1815882 0.153722,-0.4221913 0.347656,-0.421875 z m 10.644532,2.9140624 c 0.01656,0.01468 0.01722,0.01529 0.04492,0.04102 0.09543,0.08862 1.459534,1.666255 3.058593,3.535156 l 2.837891,3.316406 -0.01758,0.841797 c -0.01983,1.022048 -0.02745,0.974341 -0.332031,1.181641 l -0.121094,0.08203 -9.880859,-0.002 c -8.5405983,-0.002 -9.6905083,-0.03059 -9.7851568,-0.05469 0.9749993,-1.013018 4.6266748,-4.628233 4.7753908,-4.74414 0.01324,0.0105 0.0283,0.02107 0.04492,0.03516 0.175474,0.14873 0.488198,0.457086 1.08789,1.052734 0.698658,0.693948 1.368395,1.324059 1.533204,1.386719 0.283146,0.107654 0.73009,0.105382 1,-0.01758 0.174701,-0.07959 1.402698,-1.521292 3.03125,-3.474609 1.552725,-1.862371 2.41,-2.862269 2.722656,-3.179688 z M 4.0703125,11.9375 c -0.3825544,0.01877 -0.7716179,0.207271 -0.984375,0.576172 -0.164489,0.285209 -2.31817645,8.57287 -2.35742188,9.033203 -0.0994527,1.166517 0.62056918,2.434997 1.67773438,2.970703 0.2199367,0.11145 4.3433263,1.242341 10.255859,2.828125 6.451807,1.730422 8.885795,2.389584 9.976563,2.597656 0.877642,0.167417 1.097982,0.02941 1.259766,-0.01367 0.815935,-0.217258 1.626333,-0.871533 1.988281,-1.611329 0.216609,-0.442733 0.970855,-3.435232 0.910156,-3.761718 -0.142819,-0.768135 -0.954993,-1.219455 -1.671875,-0.919922 -0.542062,0.226488 -0.625933,0.509303 -1.021484,2.09375 -0.200595,0.803513 -0.424242,1.536923 -0.44336,1.568359 -0.10178,0.167364 -0.30181,0.279103 -0.496094,0.279297 -0.0526,4.7e-5 -4.9423,-1.27777 -9.839843,-2.580078 -4.8975435,-1.302308 -9.7803587,-2.620096 -9.8515628,-2.658203 -0.093315,-0.04994 -0.2825653,-0.328135 -0.3027343,-0.478516 -0.012304,-0.09173 0.2244196,-1.124747 1.0585937,-4.324219 1.1731203,-4.499507 1.2211703,-4.632989 0.875,-5.11914 C 4.856789,12.071471 4.4540594,11.918677 4.0703125,11.9375 Z"
       id="path293"
       inkscape:original-d="M 12.736503,27.072036 C 6.8240222,25.486266 2.7087882,24.354457 2.5347152,24.266248 1.5794712,23.782189 0.92245325,22.619302 1.0118412,21.570839 c 0.03762,-0.441267 2.180112,-8.669338 2.321003,-8.91363 0.316818,-0.549332 1.172164,-0.59129 1.539429,-0.07551 0.260026,0.365173 0.256526,0.383816 -0.91663,4.88346 -0.834231,3.19969 -1.089781,4.261749 -1.066758,4.433403 0.03193,0.238071 0.261247,0.588542 0.451819,0.690533 0.232963,0.124678 19.5890068,5.27299 19.8239988,5.272778 0.29321,-2.93e-4 0.5836,-0.164237 0.7367,-0.415989 0.06118,-0.100598 0.275676,-0.841616 0.476665,-1.646708 0.392957,-1.574053 0.46647,-1.737118 0.85661,-1.900129 0.546288,-0.228254 1.171945,0.118761 1.282077,0.711092 0.04391,0.236182 -0.677727,3.162045 -0.883755,3.583152 -0.329047,0.672547 -1.058811,1.263158 -1.806891,1.462348 -0.758866,0.202063 -0.336474,0.30047 -11.089606,-2.583599 z M 8.0859752,22.153125 c -0.699063,-0.194828 -1.236502,-0.607747 -1.716533,-1.318829 -0.284498,-0.421434 -0.296024,-0.454727 -0.345122,-0.996912 -0.02794,-0.308504 -0.04351,-3.869631 -0.03461,-7.913614 l 0.01619,-7.3526974 0.136328,-0.3776973 c 0.250428,-0.6938114 0.646198,-1.179964 1.260741,-1.5486576 0.683713,-0.4101921 0.05338,-0.3880982 11.0723208,-0.3880982 6.360071,0 10.040125,0.021027 10.24234,0.058523 1.067855,0.198007 2.014922,1.1457307 2.218698,2.2202363 0.03871,0.2041331 0.05981,2.9431098 0.05981,7.7657562 0,8.204058 0.01871,7.767545 -0.363602,8.484828 -0.223081,0.418542 -0.692445,0.900709 -1.084521,1.114104 -0.654627,0.356293 -0.02704,0.337515 -11.088602,0.331782 -7.913245,-0.0041 -10.1670468,-0.02121 -10.3734318,-0.07872 z M 28.652978,20.230252 c 0.410712,-0.279528 0.436878,-0.360256 0.457264,-1.410792 l 0.01841,-0.948537 -2.907347,-3.397972 c -1.599045,-1.868885 -2.985429,-3.470483 -3.080859,-3.559106 -0.09543,-0.08862 -0.225524,-0.161132 -0.289101,-0.161132 -0.08114,0 -0.941979,0.991183 -2.88793,3.325196 -1.628461,1.953209 -2.838673,3.355415 -2.933113,3.398437 -0.197056,0.08977 -0.559953,0.0947 -0.781123,0.01061 -0.09061,-0.03445 -0.735892,-0.629936 -1.433969,-1.323306 -1.199686,-1.191596 -1.276751,-1.256856 -1.40646,-1.19101 -0.146726,0.07449 -5.2055878,5.096429 -5.2055878,5.167599 0,0.02328 0.07251,0.08166 0.161133,0.129743 0.140996,0.07649 1.406717,0.08771 10.1280548,0.08976 l 9.96692,0.0023 0.193708,-0.131836 z M 12.36332,13.403541 c 0.593433,-0.349938 1.393312,-0.392338 2.028013,-0.107501 0.28774,0.12913 0.514183,0.31995 1.227117,1.034075 0.480845,0.481647 0.900961,0.874231 0.93359,0.872407 0.03263,-0.0018 1.087647,-1.24274 2.344483,-2.757594 1.256836,-1.514854 2.394595,-2.8562147 2.528355,-2.9808032 0.449964,-0.4191135 1.051287,-0.6231856 1.686135,-0.572226 0.466727,0.037464 0.837948,0.2041148 1.188863,0.53371 0.154132,0.1447681 1.295377,1.4488192 2.5361,2.8978932 l 2.255859,2.634677 0.01667,-4.9591784 c 0.0092,-2.7275477 0.0013,-5.0454351 -0.01754,-5.1508605 -0.04637,-0.2598382 -0.344,-0.5843458 -0.60515,-0.6598047 -0.147831,-0.042715 -3.285457,-0.056569 -10.116636,-0.044669 l -9.9023448,0.01725 -0.197257,0.1406876 c -0.108492,0.077378 -0.246341,0.2487649 -0.306331,0.3808594 -0.104225,0.2294972 -0.109129,0.5265885 -0.110359,6.6844206 l -0.0013,6.444247 2.1533208,-2.143329 c 1.184329,-1.178832 2.245609,-2.197749 2.358402,-2.264261 z M 11.459727,10.863846 C 9.7070352,10.261097 9.1842792,8.0639949 10.484392,6.7645864 c 0.994223,-0.993687 2.530379,-0.9993405 3.50988,-0.012917 0.745587,0.7508559 0.94524,1.8546666 0.508742,2.8126498 -0.156092,0.3425757 -0.593693,0.8413098 -0.919262,1.0476838 -0.59343,0.376166 -1.462782,0.479244 -2.124025,0.251843 z M 12.611158,8.9968865 C 12.837664,8.818717 12.916477,8.5768302 12.83171,8.319984 12.75547,8.0889775 12.484664,7.8822072 12.257871,7.8818386 c -0.37361,-6.093e-4 -0.705234,0.4051817 -0.625988,0.7659856 0.08773,0.3994201 0.657198,0.6024082 0.979275,0.3490623 z" />
  </g>
</svg>
