<?xml version="1.0" encoding="UTF-8" standalone="no"?>
<!-- Created with Inkscape (http://www.inkscape.org/) -->

<svg
   version="1.1"
   id="svg1851"
   width="22"
   height="22"
   viewBox="0 0 22 22.000001"
   sodipodi:docname="send.svg"
   inkscape:export-filename="send.svg"
   inkscape:export-xdpi="96"
   inkscape:export-ydpi="96"
   xmlns:inkscape="http://www.inkscape.org/namespaces/inkscape"
   xmlns:sodipodi="http://sodipodi.sourceforge.net/DTD/sodipodi-0.dtd"
   xmlns="http://www.w3.org/2000/svg"
   xmlns:svg="http://www.w3.org/2000/svg">
  <sodipodi:namedview
     id="namedview9195"
     pagecolor="#ffffff"
     bordercolor="#000000"
     borderopacity="0.25"
     inkscape:showpageshadow="2"
     inkscape:pageopacity="0.0"
     inkscape:pagecheckerboard="0"
     inkscape:deskcolor="#d1d1d1"
     showgrid="false" />
  <defs
     id="defs1855" />
  <g
     id="g1857"
     transform="matrix(0.6502413,0,0,0.6502413,0.5961393,0.59644081)">
    <path
       style="fill:#8b8b8b;fill-opacity:1;stroke-width:0.0587157"
       d="M 29.181641,0.609375 28.591797,0.61328125 15.367188,5.0253906 C 6.8304532,7.8731374 3.6397241,8.9303426 2.3417969,9.4492188 1.4650794,9.7997066 1.2938852,10.0458 1.1445312,10.234375 c -0.38186327,0.482142 -0.52337092,0.900471 -0.52343745,1.53125 -5.407e-5,0.493785 0.0420901,0.672891 0.2578125,1.109375 0.14568165,0.294767 0.26524725,0.576298 0.72265625,0.90625 0.620992,0.447953 1.9793838,1.138203 5.5488281,2.976562 2.9616784,1.525345 5.3320434,2.746107 5.3320314,2.746094 0,0 1.219418,2.371003 2.74414,5.333985 2.263892,4.399404 2.833418,5.473485 3.089844,5.726562 0.313821,0.309723 0.929878,0.662945 1.333985,0.757813 1.02418,0.240436 2.016071,-0.172509 2.626953,-1.066407 0.287805,-0.421143 0.70908,-1.699898 4.6875,-13.626953 L 31.378906,3.3964844 V 2.8085938 c -8e-6,-0.4343778 -0.02699,-0.6697387 -0.15625,-0.953125 C 31.008185,1.3852922 30.669981,1.0379235 30.210938,0.8125 29.881092,0.6505255 29.668221,0.60779324 29.181641,0.609375 Z M 26.041016,4.125 c -0.887219,0.9125429 -2.548587,2.5758441 -5.935547,5.962891 -3.124522,3.124601 -5.809446,5.794324 -6.773438,6.734375 -0.08183,0.0798 -0.13392,0.126242 -0.189453,0.179687 -0.01613,-0.008 -0.02317,-0.01063 -0.04102,-0.01953 -0.69893,-0.348713 -2.635523,-1.339355 -4.882812,-2.498047 -4.7168662,-2.431992 -5.0349744,-2.64069 -5.0625,-2.689453 0.010961,-0.0084 0.021239,-0.01735 0.035156,-0.02734 C 3.2097061,11.754439 21.850993,5.4968022 26.041016,4.125 Z m 1.839843,1.8242188 c -0.371723,1.1152946 -1.622977,4.8697482 -3.576171,10.7304692 -2.93752,8.814271 -4.068085,12.083707 -4.101563,12.132812 -0.0013,0.0023 -0.03155,0.123224 -2.695313,-5.041016 -1.159197,-2.247337 -2.150939,-4.182425 -2.5,-4.880859 -0.0089,-0.01784 -0.01151,-0.0249 -0.01953,-0.04102 0.05359,-0.05562 0.101562,-0.107431 0.181641,-0.189453 0.941807,-0.964661 3.615017,-3.651607 6.74414,-6.777344 1.955637,-1.95352 3.73013,-3.7205991 5.013672,-4.992187 0.403444,-0.3996863 0.656553,-0.6492121 0.953125,-0.9414062 z"
       id="path1861" />
  </g>
</svg>
