<?xml version="1.0" encoding="UTF-8" standalone="no"?>
<svg
   width="36"
   height="36"
   viewBox="0 0 36 36"
   fill="none"
   version="1.1"
   id="svg509"
   xmlns="http://www.w3.org/2000/svg"
   xmlns:svg="http://www.w3.org/2000/svg">
  <g
     clip-path="url(#clip0_50_414)"
     id="g502"
     transform="matrix(1.0434783,0,0,1.0434783,5.4780521,5.4782604)">
    <path
       fill-rule="evenodd"
       clip-rule="evenodd"
       d="m 12.7832,21.5 c 0.2069,0 0.3924,-0.1274 0.4667,-0.3205 0.9444,-2.4556 3.4763,-3.9174 6.0751,-3.5075 0.2044,0.0322 0.4075,-0.0647 0.5109,-0.2439 l 0.783,-1.3562 c 0.1035,-0.1792 0.0859,-0.4035 -0.0442,-0.5644 -1.6544,-2.0457 -1.6544,-4.9693 0,-7.01499 0.1301,-0.16087 0.1477,-0.38524 0.0442,-0.56441 L 19.8359,6.5719 C 19.7325,6.39273 19.5294,6.29578 19.325,6.32801 16.7262,6.73787 14.1943,5.27609 13.2499,2.82051 13.1756,2.62741 12.9901,2.5 12.7832,2.5 h -1.566 C 11.0103,2.5 10.8248,2.62741 10.7505,2.82051 9.80607,5.2761 7.27418,6.73787 4.67536,6.32801 4.471,6.29578 4.2679,6.39273 4.16446,6.5719 L 3.38145,7.9281 C 3.27801,8.10727 3.2956,8.33164 3.42569,8.49251 c 1.65437,2.04569 1.65437,4.96929 0,7.01499 -0.13009,0.1609 -0.14768,0.3852 -0.04423,0.5644 l -1.73205,1 c -0.51722,-0.8958 -0.4293,-2.0177 0.22117,-2.822 1.06119,-1.3122 1.06119,-3.1876 0,-4.49977 C 1.22011,8.9458 1.13219,7.82395 1.64941,6.9281 l 0.783,-1.3562 C 2.94962,4.67606 3.96514,4.19128 4.98694,4.35243 6.65394,4.61533 8.27801,3.67768 8.88383,2.10256 9.25516,1.13707 10.1828,0.5 11.2172,0.5 h 1.566 c 1.0344,0 1.962,0.63707 2.3334,1.60255 0.6058,1.57513 2.2298,2.51278 3.8969,2.24987 1.0218,-0.16115 2.0373,0.32364 2.5545,1.21948 l 0.783,1.3562 c 0.5172,0.89584 0.4293,2.0177 -0.2212,2.82203 -1.0612,1.31217 -1.0612,3.18757 0,4.49977 0.6505,0.8043 0.7384,1.9262 0.2212,2.822 l -0.783,1.3562 c -0.5172,0.8958 -1.5327,1.3806 -2.5545,1.2195 -1.6671,-0.2629 -3.2911,0.6747 -3.8969,2.2499 -0.3714,0.9654 -1.299,1.6025 -2.3334,1.6025 h -1.566 C 10.1828,23.5 9.25517,22.8629 8.88383,21.8974 8.27802,20.3223 6.65395,19.3847 4.98694,19.6476 3.96514,19.8087 2.94962,19.3239 2.43241,18.4281 l -0.783,-1.3562 1.73205,-1 0.783,1.3562 c 0.10344,0.1792 0.30655,0.2761 0.51091,0.2439 2.59882,-0.4099 5.1307,1.0519 6.07513,3.5075 0.0743,0.1931 0.2598,0.3205 0.4667,0.3205 z M 7.5002,12 c 0,-2.48528 2.01472,-4.5 4.5,-4.5 2.4853,0 4.5,2.01472 4.5,4.5 0,2.4853 -2.0147,4.5 -4.5,4.5 -2.48528,0 -4.5,-2.0147 -4.5,-4.5 z m 2,0 c 0,-1.3807 1.1193,-2.5 2.5,-2.5 1.3807,0 2.5,1.1193 2.5,2.5 0,1.3807 -1.1193,2.5 -2.5,2.5 -1.3807,0 -2.5,-1.1193 -2.5,-2.5 z"
       fill="#8b8b8b"
       id="path500" />
  </g>
  <defs
     id="defs507">
    <clipPath
       id="clip0_50_414">
      <rect
         width="24"
         height="24"
         fill="#ffffff"
         id="rect504"
         x="0"
         y="0" />
    </clipPath>
  </defs>
</svg>
