<?xml version="1.0" encoding="UTF-8" standalone="no"?>
<svg
   width="24"
   height="24"
   viewBox="0 0 24 24"
   fill="none"
   version="1.1"
   id="svg4"
   sodipodi:docname="ReddNotes.icon.star.ink.svg"
   inkscape:version="1.2.1 (9c6d41e410, 2022-07-14)"
   xmlns:inkscape="http://www.inkscape.org/namespaces/inkscape"
   xmlns:sodipodi="http://sodipodi.sourceforge.net/DTD/sodipodi-0.dtd"
   xmlns="http://www.w3.org/2000/svg"
   xmlns:svg="http://www.w3.org/2000/svg">
  <defs
     id="defs8" />
  <sodipodi:namedview
     id="namedview6"
     pagecolor="#ffffff"
     bordercolor="#000000"
     borderopacity="0.25"
     inkscape:showpageshadow="2"
     inkscape:pageopacity="0.0"
     inkscape:pagecheckerboard="0"
     inkscape:deskcolor="#d1d1d1"
     showgrid="false"
     inkscape:zoom="24.424647"
     inkscape:cx="15.169104"
     inkscape:cy="10.19462"
     inkscape:window-width="1920"
     inkscape:window-height="1009"
     inkscape:window-x="1912"
     inkscape:window-y="1"
     inkscape:window-maximized="1"
     inkscape:current-layer="svg4" />
  <path
     fill-rule="evenodd"
     clip-rule="evenodd"
     d="m 12.0002,0.5 c 0.3806,0 0.7283,0.216099 0.8967,0.55743 l 3.0737,6.22784 6.8728,0.99868 c 0.3767,0.05474 0.6896,0.31858 0.8072,0.68059 0.1177,0.36201 0.0196,0.75941 -0.253,1.02511 l -4.9732,4.84765 1.174,6.8451 c 0.0643,0.3752 -0.0899,0.7543 -0.3978,0.9781 -0.308,0.2237 -0.7162,0.2532 -1.0532,0.0761 L 12.0002,19.5048 5.85295,22.7366 C 5.51603,22.9137 5.10777,22.8842 4.79983,22.6605 4.49188,22.4367 4.33766,22.0576 4.402,21.6824 L 5.57602,14.8373 0.602799,9.98965 C 0.330226,9.72395 0.232129,9.32655 0.349754,8.96454 0.467379,8.60253 0.780326,8.33869 1.15701,8.28395 L 8.02984,7.28527 11.1035,1.05743 C 11.2719,0.716099 11.6196,0.5 12.0002,0.5 Z m 0,3.25955 -2.40956,4.8823 C 9.44498,8.93699 9.16341,9.14156 8.8377,9.18889 L 3.44977,9.9718 7.34852,13.7721 c 0.23568,0.2298 0.34323,0.5608 0.28759,0.8852 l -0.92037,5.3661 4.81916,-2.5335 c 0.2913,-0.1532 0.6393,-0.1532 0.9306,0 l 4.8191,2.5335 -0.9203,-5.3661 c -0.0557,-0.3244 0.0519,-0.6554 0.2876,-0.8852 L 20.5506,9.9718 15.1627,9.18889 C 14.837,9.14156 14.5554,8.93699 14.4098,8.64184 Z"
     fill="#8b8b8b"
     id="path2" />
</svg>
