<?xml version="1.0" encoding="UTF-8" standalone="no"?>
<svg
   width="24"
   height="24"
   viewBox="0 0 24 24"
   fill="none"
   version="1.1"
   id="svg12"
   xmlns="http://www.w3.org/2000/svg"
   xmlns:svg="http://www.w3.org/2000/svg">
  <defs
     id="defs16" />
  <path
     fill-rule="evenodd"
     clip-rule="evenodd"
     d="m 12.0002,0.75 c 0.3806,0 0.7283,0.216099 0.8967,0.55743 l 3.0737,6.22784 6.8728,0.99868 c 0.3767,0.05474 0.6896,0.31858 0.8072,0.68059 0.1177,0.36201 0.0196,0.75941 -0.253,1.02511 l -4.9732,4.84765 1.174,6.8451 c 0.0643,0.3752 -0.0899,0.7543 -0.3978,0.9781 -0.308,0.2237 -0.7162,0.2532 -1.0532,0.0761 L 12.0002,19.7548 5.85295,22.9866 C 5.51603,23.1637 5.10777,23.1342 4.79983,22.9105 4.49188,22.6867 4.33766,22.3076 4.402,21.9324 L 5.57602,15.0873 0.602799,10.23965 C 0.330226,9.97395 0.232129,9.57655 0.349754,9.21454 0.467379,8.85253 0.780326,8.58869 1.15701,8.53395 L 8.02984,7.53527 11.1035,1.30743 C 11.2719,0.966099 11.6196,0.75 12.0002,0.75 Z"
     fill="#71747a"
     id="path10"
     style="fill:#e24352;fill-opacity:1;stroke:none;stroke-opacity:1" />
</svg>
