<?xml version="1.0" encoding="UTF-8" standalone="no"?>
<svg
   width="36"
   height="36"
   viewBox="0 0 36 36"
   fill="none"
   version="1.1"
   id="svg6"
   xmlns="http://www.w3.org/2000/svg"
   xmlns:svg="http://www.w3.org/2000/svg">
  <defs
     id="defs10" />
  <g
     id="g476"
     transform="matrix(0.92307692,0,0,0.92307692,1.3846154,-1.6870255)">
    <path
       fill-rule="evenodd"
       clip-rule="evenodd"
       d="m 18,8.5 c -3.247956,0 -5.880952,2.537659 -5.880952,5.668014 0,3.130356 2.632996,5.668015 5.880952,5.668015 3.248019,0 5.880953,-2.537659 5.880953,-5.668015 C 23.880953,11.037659 21.248019,8.5 18,8.5 Z m -3.404762,5.668014 c 0,-1.812308 1.524343,-3.281481 3.404762,-3.281481 1.880419,0 3.404761,1.469173 3.404761,3.281481 0,1.812309 -1.524342,3.281482 -3.404761,3.281482 -1.880419,0 -3.404762,-1.469173 -3.404762,-3.281482 z"
       fill="#8b8b8b"
       id="path2"
       style="stroke-width:1.21548" />
    <path
       fill-rule="evenodd"
       clip-rule="evenodd"
       d="m 18,22.222561 c -9.7376439,0 -13,5.104076 -13,7.75623 0,1.16606 0.4087077,2.230574 1.2138161,3.006554 0.8051087,0.775981 1.9095886,1.169877 3.1195172,1.169877 H 26.666667 c 1.209867,0 2.314371,-0.393896 3.119505,-1.169877 C 30.591305,32.209365 31,31.144851 31,29.978791 c 0,-2.652154 -3.262381,-7.75623 -13,-7.75623 z m -10.5238095,7.75623 c 0,-0.927644 1.6900244,-5.369697 10.5238095,-5.369697 8.83381,0 10.523811,4.442053 10.523811,5.369697 0,0.62384 -0.210354,1.050909 -0.488553,1.319037 -0.2782,0.268127 -0.721314,0.470863 -1.368591,0.470863 H 9.3333333 c -0.6472142,0 -1.0903535,-0.202736 -1.3685781,-0.470863 C 7.6865305,31.0297 7.4761905,30.602631 7.4761905,29.978791 Z"
       fill="#8b8b8b"
       id="path4"
       style="stroke-width:1.21548" />
  </g>
</svg>
