<?xml version="1.0" encoding="UTF-8" standalone="no"?>
<svg
   version="1.1"
   id="svg2"
   width="550"
   height="300"
   viewBox="0 0 550 300"
   sodipodi:docname="ReddNotes.logo.full.ink.svg"
   inkscape:version="1.2.1 (9c6d41e410, 2022-07-14)"
   inkscape:export-filename="..\Desktop\ReddNotes_logo_full.svg"
   inkscape:export-xdpi="96"
   inkscape:export-ydpi="96"
   xmlns:inkscape="http://www.inkscape.org/namespaces/inkscape"
   xmlns:sodipodi="http://sodipodi.sourceforge.net/DTD/sodipodi-0.dtd"
   xmlns="http://www.w3.org/2000/svg"
   xmlns:svg="http://www.w3.org/2000/svg">
  <defs
     id="defs6">
    <clipPath
       clipPathUnits="userSpaceOnUse"
       id="clipPath5539">
      <rect
         style="fill:#e2b845;fill-opacity:0.420382;stroke:#000000;stroke-width:0;stroke-linejoin:bevel;paint-order:stroke markers fill"
         id="rect5541"
         width="499.79733"
         height="250.14912"
         x="350.67459"
         y="79.663254"
         inkscape:label="rect4323" />
    </clipPath>
  </defs>
  <sodipodi:namedview
     id="namedview4"
     pagecolor="#ffffff"
     bordercolor="#000000"
     borderopacity="0.25"
     inkscape:showpageshadow="2"
     inkscape:pageopacity="0.0"
     inkscape:pagecheckerboard="0"
     inkscape:deskcolor="#d1d1d1"
     showgrid="false"
     inkscape:zoom="0.96115261"
     inkscape:cx="309.004"
     inkscape:cy="168.54764"
     inkscape:window-width="1920"
     inkscape:window-height="1009"
     inkscape:window-x="1912"
     inkscape:window-y="1"
     inkscape:window-maximized="1"
     inkscape:current-layer="g8" />
  <g
     inkscape:groupmode="layer"
     inkscape:label="Image"
     id="g8">
    <path
       style="fill:#e24352;fill-opacity:1;stroke-width:0.22869"
       d="m 170.57969,359.85508 c -0.88045,-0.10897 -2.04926,-0.32359 -2.59732,-0.47693 -1.95043,-0.54575 -4.93098,-3.25982 -5.74923,-5.23525 -0.37181,-0.89763 -0.12313,-2.35252 0.95432,-5.58318 1.40497,-4.21275 2.2012,-5.55198 11.97749,-20.14607 14.38242,-21.47012 16.94154,-26.05957 20.08449,-36.01875 2.71961,-8.61771 3.95174,-16.87001 3.7383,-25.03751 -0.14685,-5.61919 -0.57169,-9.17315 -1.68176,-14.06855 -2.37314,-10.46553 -8.4837,-24.4542 -16.43306,-37.61956 -1.93739,-3.20864 -8.89639,-13.46505 -9.69521,-14.28913 -0.28792,-0.29702 -0.31252,-0.26871 -0.19866,0.22869 0.84175,3.67688 0.8957,4.16749 0.90502,8.22882 0.0194,8.43832 -1.26374,18.76493 -3.93552,31.67364 -4.23872,20.47942 -10.03948,35.48069 -17.82543,46.09803 -1.71562,2.3395 -2.72314,3.6233 -7.43494,9.47373 -3.98819,4.95193 -12.91639,13.45759 -18.76134,17.87337 -10.15638,7.67306 -19.85733,11.5067 -29.239932,11.55507 -3.94514,0.0204 -6.01511,-0.46171 -9.57492,-2.22983 -3.34479,-1.66133 -6.874126,-4.51506 -11.613796,-9.39062 -8.63166,-8.87919 -13.89011,-17.35516 -18.03178,-29.06495 -5.17794,-14.63971 -6.59443,-27.78491 -4.60094,-42.69726 0.81436,-6.09186 2.29408,-12.66057 4.71752,-20.94189 2.83528,-9.6886 7.24627,-18.0404 14.35007,-27.17051 2.8784,-3.6994 8.95997,-9.94864 13.286886,-13.65316 3.07845,-2.63564 10.17673,-7.84042 10.17673,-7.46205 0,0.0926 -0.41864,1.02247 -0.93031,2.06635 -3.10208,6.32876 -4.28277,13.41298 -4.02508,24.15075 0.1415,5.89609 0.36534,8.55452 1.06868,12.69232 1.21031,7.1202 3.87368,12.58103 8.236755,16.88814 4.561407,4.50291 9.538627,6.11065 16.435137,5.30891 5.46223,-0.63503 9.35568,-2.21034 12.42818,-5.02856 1.6267,-1.49206 4.88842,-5.7745 5.84786,-7.67785 1.30454,-2.58799 2.11013,-5.89892 3.25251,-13.36778 1.02421,-6.69623 1.06,-17.71499 0.11259,-34.65721 -0.71461,-12.77904 -0.67292,-17.11491 0.23113,-24.03713 0.74222,-5.68313 2.22713,-12.09178 4.12911,-17.82063 1.06249,-3.20024 1.76268,-5.01533 3.70234,-9.59759 0.86738,-2.04909 5.68162,-11.59598 6.97702,-13.83577 1.94458,-3.36227 5.39192,-8.61362 7.43135,-11.320179 5.8666,-7.78567 16.43084,-18.054508 27.16141,-26.401908 8.09604,-6.298 16.61081,-12.34144 21.68759,-15.39299 2.88093,-1.73166 11.28674,-6.03609 11.44072,-5.85854 0.041,0.0472 -0.93842,2.14405 -2.17637,4.65965 -3.50464,7.12165 -8.49987,18.55249 -9.69384,22.18297 -0.16546,0.50312 -0.72998,2.09823 -1.25448,3.5447 -7.43834,20.513437 -10.38613,41.845357 -8.10588,58.659087 1.12691,8.30938 3.30931,15.58541 6.61052,22.03924 1.45807,2.85049 4.66334,7.8084 6.68698,10.34342 5.30971,6.65141 13.23838,13.10747 20.64216,16.80818 3.92397,1.96134 7.09365,2.77829 9.53934,2.45865 1.42176,-0.18583 3.63232,-1.18029 4.69221,-2.11086 5.83404,-5.12237 6.99165,-21.05924 3.36582,-46.33696 -0.65735,-4.58266 -1.28522,-8.20637 -2.03816,-11.76322 -0.36112,-1.70591 -0.7764,-3.66767 -0.92281,-4.35946 -0.14641,-0.69179 -0.5712,-2.32153 -0.94399,-3.62163 -0.37276,-1.3001 -0.63866,-2.48113 -0.59086,-2.62452 0.0953,-0.28588 6.35832,5.58915 10.34719,9.7062 20.04366,20.68772 34.4029,45.08256 42.2968,71.85783 2.3685,8.03366 4.38634,17.92699 5.13812,25.19158 0.958,9.25761 0.90961,20.87892 -0.12141,29.15802 -2.797,22.45945 -11.37882,43.44489 -24.14834,59.05084 -0.79383,0.97015 -2.30618,2.82254 -3.36079,4.11643 -2.97876,3.65458 -10.38753,10.82943 -13.998,13.55601 -8.87041,6.69885 -18.54515,11.5381 -34.77661,17.39511 -8.96274,3.23414 -16.14643,5.16809 -30.14998,8.11673 -8.46666,1.78277 -9.13721,1.86076 -16.6944,1.94155 -3.7105,0.0397 -7.46674,-0.0172 -8.3472,-0.12603 z m 319.97422,-30.76627 c -10.49492,-2.08604 -17.88716,-11.54232 -17.22949,-22.04032 0.19322,-3.08432 0.85418,-5.44776 2.35313,-8.41429 3.00561,-5.94829 8.46622,-10.03823 14.90033,-11.16025 10.0466,-1.75198 19.67529,3.54659 23.4385,12.89802 3.44701,8.56564 0.89999,18.50003 -6.21083,24.22479 -4.7916,3.8576 -11.56733,5.6219 -17.25164,4.49205 z m 6.84926,-14.52296 c 3.05594,-1.47937 4.60815,-5.01871 3.64857,-8.31953 -0.31031,-1.06746 -0.66018,-1.60513 -1.80059,-2.76711 -1.17984,-1.20215 -1.64124,-1.50711 -2.7718,-1.83206 -5.04782,-1.45079 -9.91622,2.88946 -8.84481,7.88529 0.61856,2.88427 2.39116,4.77934 5.16996,5.52711 1.17079,0.31504 3.42876,0.0727 4.59867,-0.4937 z m 329.81842,14.4177 c -1.69745,-0.26993 -4.38159,-1.32215 -6.33913,-2.48511 -1.78403,-1.05989 -4.30592,-3.64094 -5.49258,-5.62142 -0.69542,-1.16068 -2.07575,-4.60386 -2.07575,-5.17792 0,-0.11979 0.283,-0.32026 0.6289,-0.44553 0.34589,-0.12526 0.83472,-0.32664 1.08628,-0.44753 0.25156,-0.12086 2.38511,-0.88361 4.74119,-1.69498 l 4.28383,-1.47523 1.09039,1.63122 c 0.59974,0.89715 1.41719,1.95965 1.8166,2.36109 0.94079,0.94559 2.87761,1.85413 4.37657,2.05298 1.02538,0.13602 1.29462,0.0836 1.98513,-0.38667 1.91438,-1.30374 0.34239,-2.81948 -5.02967,-4.84968 -7.16775,-2.70882 -9.42263,-4.11291 -11.40762,-7.1034 -1.95796,-2.94981 -2.02174,-7.16299 -0.16415,-10.84288 0.82966,-1.64353 3.40282,-4.12807 5.22733,-5.04726 6.77776,-3.41469 15.78241,-2.4842 21.28264,2.19924 1.7091,1.4553 4.6182,5.70526 4.61351,6.73997 -0.002,0.3069 -2.45796,1.24595 -7.84907,3.00042 l -3.16224,1.02908 -0.49342,-0.61021 c -1.97851,-2.44688 -4.39199,-3.94701 -5.78687,-3.59691 -0.85478,0.21453 -1.68838,0.81182 -1.68838,1.20977 0,0.60598 1.57388,1.80866 3.15342,2.40969 5.35942,2.03932 6.74993,2.60608 8.30815,3.3864 4.26939,2.138 6.23926,4.31044 7.1786,7.91692 1.40652,5.39995 -1.5743,10.94868 -7.48275,13.92903 -2.6688,1.34618 -5.1534,1.94023 -8.52747,2.03882 -1.63515,0.0478 -3.55818,-0.006 -4.27344,-0.1199 z m -476.01923,-0.17099 c -0.28038,-0.18529 -0.43646,-15.29123 -0.3426,-33.15882 l 0.0423,-8.06133 h 6.47398 c 4.82557,0 6.56997,0.0728 6.8511,0.28586 0.45987,0.34857 3.01166,5.32318 5.42553,10.57694 0.98245,2.13825 1.93495,3.91794 2.11666,3.95487 0.27958,0.0568 0.35205,-0.96345 0.4711,-6.63202 0.0774,-3.68455 0.22915,-7.0079 0.33725,-7.38524 0.18387,-0.64186 0.29129,-0.69796 1.66693,-0.87046 2.36054,-0.29604 11.43479,-0.036 11.69543,0.33519 0.13145,0.18721 0.16418,4.0912 0.084,10.02593 -0.0722,5.34564 -0.1315,14.53042 -0.13182,20.41062 v 10.69128 h -6.60488 -6.60487 l -0.57731,-0.7569 c -0.31754,-0.41628 -1.37109,-2.14004 -2.34126,-3.83056 -3.13578,-5.46411 -4.94848,-8.48684 -5.0366,-8.39873 -0.0474,0.0474 -0.1472,2.90862 -0.22182,6.35834 -0.0746,3.44974 -0.16425,6.30077 -0.19915,6.33567 -0.16171,0.16171 -12.86434,0.2774 -13.10348,0.11936 z m 259.71997,-0.0996 c -0.0114,-4.41184 -0.30793,-29.82091 -0.34852,-29.87035 -0.0316,-0.0385 -2.15276,-0.0651 -4.71372,-0.0592 -2.561,0.006 -4.78138,-0.0694 -4.93423,-0.16731 -0.20347,-0.13035 -0.2844,-1.56799 -0.30213,-5.36769 -0.0133,-2.85431 0.0248,-5.26886 0.0846,-5.36565 0.12598,-0.20376 30.44765,-0.33567 32.53347,-0.14156 l 1.39353,0.12969 -0.0926,5.17783 c -0.0509,2.84779 -0.13374,5.30443 -0.18401,5.45919 -0.0678,0.20874 -1.37759,0.29729 -5.07432,0.34303 l -4.98291,0.0617 -0.0594,14.97922 -0.0594,14.97922 -6.62978,0.0706 c -5.3463,0.057 -6.62996,0.0128 -6.63058,-0.22869 z m 98.48956,-1.08561 c -0.0782,-0.74869 -0.14543,-10 -0.14929,-20.55845 -0.005,-15.24467 0.0523,-19.21418 0.28106,-19.27968 0.50346,-0.14416 27.11404,-0.0887 27.25999,0.0568 0.0769,0.0767 0.0599,2.54652 -0.0377,5.48857 l -0.17746,5.34924 -6.50989,0.0608 c -3.58044,0.0334 -6.597,0.14793 -6.70348,0.25441 -0.32371,0.32371 -0.23363,3.2738 0.10655,3.4895 0.16509,0.10469 2.62566,0.19194 5.46796,0.19386 l 5.16779,0.003 -0.04,2.34407 c -0.022,1.28924 -0.0578,3.81055 -0.0794,5.60292 l -0.0394,3.25891 h -5.35308 -5.35304 l -0.088,1.31497 c -0.0484,0.72323 -0.0248,1.57224 0.0524,1.88669 l 0.14032,0.57173 6.76219,0.0605 6.76222,0.0605 -0.0649,1.3116 c -0.0357,0.72138 -0.0759,3.23881 -0.0894,5.59426 l -0.0245,4.28264 -13.57433,0.007 -13.57433,0.007 -0.14229,-1.36124 z M 351.77911,263.2157 c -0.29949,-0.0938 -0.40839,-0.51913 -0.5102,-1.9929 -0.43527,-6.29948 -0.59071,-73.59936 -0.17706,-76.65544 1.38213,-10.21117 4.49693,-18.69379 10.07215,-27.42962 3.89178,-6.09801 9.48652,-12.14714 15.31112,-16.55468 4.55433,-3.44629 9.20447,-6.14394 15.24821,-8.84583 5.02969,-2.24853 12.54449,-4.1692 19.28558,-4.92915 2.93154,-0.33046 12.94343,-0.20724 13.31454,0.16388 0.18069,0.18071 0.23123,4.54895 0.17758,15.35515 -0.0412,8.30642 -0.12642,15.15072 -0.18931,15.20954 -0.0629,0.0588 -0.78326,0.004 -1.60083,-0.12137 -0.81758,-0.12555 -2.87579,-0.23452 -4.57381,-0.24214 -12.34401,-0.0554 -24.76281,6.85531 -31.89006,17.74581 -3.32051,5.07379 -5.09158,9.34144 -6.13286,14.77802 -0.49171,2.56714 -0.50685,3.10166 -0.50909,17.96812 -0.002,8.42724 0.0894,24.35267 0.20154,35.38984 l 0.20388,20.06758 h -2.14774 c -1.18126,0 -7.44765,0.0481 -13.92531,0.10623 -6.47765,0.0581 -11.94889,0.052 -12.15833,-0.0135 z m 285.14832,-0.79195 c -9.23338,-0.54895 -18.59915,-3.13809 -26.69039,-7.37842 -9.68971,-5.07803 -18.61055,-12.98957 -24.41488,-21.65257 -5.58444,-8.33483 -8.91831,-15.89798 -10.67461,-24.21628 -3.15995,-14.96626 -1.18926,-30.19119 5.68106,-43.89021 5.75186,-11.46885 14.50986,-20.99725 25.40635,-27.64121 8.89339,-5.42262 18.28613,-8.48979 28.97011,-9.4601 3.47687,-0.31577 11.51083,-0.18082 14.36672,0.24132 10.52099,1.55518 19.81945,5.06334 28.47527,10.74327 0.88229,0.57895 1.73967,1.13639 1.90529,1.23875 0.24694,0.15263 0.29321,-1.12427 0.25721,-7.09981 -0.0242,-4.00722 -0.0325,-14.18196 -0.0185,-22.61046 l 0.0253,-15.324589 2.80146,-1.46675 c 2.41556,-1.26471 9.92361,-5.27472 21.71567,-11.598218 1.724,-0.92451 3.16475,-1.68092 3.20166,-1.68092 0.0369,0 0.0671,16.800168 0.0671,37.333707 0,20.53354 0.0352,47.67624 0.0782,60.3171 0.0528,15.51427 -0.003,23.76376 -0.1711,25.38465 -0.79321,7.63885 -2.50357,13.78717 -5.75738,20.69648 -4.45507,9.46005 -12.46612,18.94572 -21.27404,25.18999 -13.08852,9.27898 -28.49851,13.79296 -43.95048,12.87427 z m 9.90007,-28.46242 c 9.09845,-1.47455 17.36609,-6.14141 24.10015,-13.60392 8.72942,-9.6737 11.5679,-24.81626 7.07324,-37.73393 -3.20707,-9.21714 -10.78236,-18.06186 -18.96407,-22.14199 -4.44962,-2.21896 -7.16242,-3.11204 -11.98063,-3.94411 -2.46579,-0.42582 -3.42434,-0.47697 -6.97505,-0.37217 -6.08856,0.17973 -10.26944,1.17678 -15.569,3.71291 -7.6188,3.646 -13.577,9.32207 -17.99455,17.14244 -6.79439,12.02805 -6.18589,27.21141 1.56525,39.05677 6.84534,10.4611 17.08075,16.83669 29.25401,18.22221 2.34813,0.26725 6.7149,0.11165 9.49065,-0.33821 z m 132.86914,28.55309 c -18.2253,-1.25384 -33.33709,-8.32407 -45.62758,-21.34737 -4.55325,-4.82476 -8.43376,-10.49836 -11.80845,-17.26494 -6.66768,-13.36929 -8.34748,-29.43152 -4.64942,-44.45713 5.01656,-20.38265 19.7243,-37.88961 38.63217,-45.9847 9.37414,-4.01338 18.3963,-5.71378 28.79967,-5.42788 9.98323,0.27436 18.90331,2.53108 27.81372,7.03669 2.99369,1.51379 6.79883,3.73481 8.86176,5.17254 l 0.51455,0.35861 0.002,-22.61108 0.002,-22.611079 1.53945,-0.80042 c 1.29853,-0.67516 16.9874,-9.06683 24.01285,-12.844008 1.29937,-0.6986 2.11037,-1.02103 2.10241,-0.83584 -0.007,0.16581 0.0311,27.109697 0.085,59.875317 0.0551,33.49647 0.009,60.82519 -0.10491,62.4325 -0.21124,2.97658 -0.92338,7.60221 -1.44351,9.37631 -0.16594,0.56601 -0.53145,1.85239 -0.81224,2.85863 -2.00474,7.18446 -7.31288,16.89724 -12.44053,22.76361 -3.52716,4.03529 -6.8408,7.23192 -9.85723,9.50915 -0.6277,0.47387 -1.19273,0.92779 -1.25562,1.0087 -0.20843,0.26814 -4.88437,3.32804 -6.87951,4.50189 -4.9257,2.89806 -11.64206,5.6621 -17.62099,7.25173 -5.84987,1.55534 -14.29475,2.42201 -19.86544,2.03877 z m 8.67286,-28.46356 c 6.38645,-0.88825 13.08051,-3.80696 18.76999,-8.18393 2.68158,-2.06298 3.90795,-3.23021 5.90867,-5.62387 5.27533,-6.31135 7.96532,-12.72422 8.96929,-21.38255 0.8991,-7.75387 -1.50185,-17.49083 -6.02707,-24.44242 -6.31775,-9.70528 -15.16332,-15.70399 -26.23136,-17.78907 -3.37035,-0.63491 -10.74111,-0.57346 -13.92258,0.11608 -6.69384,1.45084 -12.33655,4.14966 -17.6367,8.43536 -6.48737,5.24571 -11.94715,14.12001 -13.59231,22.09295 -2.56758,12.44325 1.3111,25.63469 10.25624,34.88164 6.78077,7.00955 14.94382,11.05359 24.51658,12.1457 2.0259,0.23112 6.40646,0.10936 8.98925,-0.24989 z m -296.02238,28.14408 c -2.73121,-0.27738 -5.1929,-0.75554 -9.5738,-1.85964 -14.45488,-3.64297 -25.32267,-10.33331 -34.14065,-21.0174 -10.6414,-12.8934 -16.18829,-26.93963 -16.69925,-42.28692 -0.47263,-14.19699 4.66091,-30.41423 13.21151,-41.73601 3.90846,-5.17515 6.93066,-8.34248 11.33084,-11.87497 12.8503,-10.31632 27.3729,-15.45993 43.62638,-15.45165 10.01941,0.005 19.62934,2.43484 30.06318,7.60105 6.9382,3.43536 10.17243,5.7954 15.96255,11.64795 4.12492,4.16939 5.35836,5.60808 7.70955,8.99239 7.84476,11.29181 11.70035,22.86892 12.37627,37.16219 0.20968,4.43411 -0.36111,11.7732 -0.96242,12.37451 -0.22211,0.22211 -7.14807,0.53134 -17.21805,0.76881 -3.20738,0.0756 -9.22765,0.23629 -13.37839,0.35699 -4.15072,0.12073 -13.51559,0.37313 -20.81082,0.56091 -19.0951,0.4915 -22.51629,0.59164 -23.66946,0.69288 -0.56601,0.0497 -5.60863,0.15432 -11.20583,0.23251 -9.36636,0.13084 -16.13962,0.39072 -16.37726,0.62835 -0.0531,0.0532 0.0589,0.39495 0.24909,0.75955 0.19014,0.3646 0.34832,0.8173 0.3515,1.00596 0.009,0.55405 2.18656,4.50263 3.83757,6.95986 2.69761,4.01491 7.69133,8.75814 11.89863,11.30179 3.84083,2.32212 9.56947,4.29133 14.79101,5.08438 2.7137,0.41217 8.02062,0.36026 10.97713,-0.10737 8.71931,-1.37912 16.2844,-5.04955 22.32723,-10.83268 1.78665,-1.70987 1.19619,-1.73939 6.55788,0.32785 6.57501,2.53504 13.26571,5.09912 17.53496,6.71989 2.26177,0.85867 4.1497,1.67335 4.19539,1.81043 0.24118,0.72351 -4.69478,7.036 -8.41586,10.76286 -8.58128,8.59465 -20.36199,15.11659 -32.36591,17.91811 -5.68755,1.32739 -7.62525,1.55219 -14.06446,1.63166 -3.33316,0.0411 -6.98649,-0.0192 -8.11851,-0.13424 z m -12.34928,-79.80269 c 5.78586,-0.11908 13.96727,-0.31861 18.18089,-0.4434 4.21362,-0.12481 13.26976,-0.33122 20.12475,-0.45872 15.08275,-0.28055 17.15179,-0.38603 17.15179,-0.87444 0,-0.70453 -2.72883,-5.93117 -4.0849,-7.82397 -3.43925,-4.80054 -8.88731,-9.69362 -13.19059,-11.84692 -6.92382,-3.46459 -12.69836,-4.78619 -19.88671,-4.55142 -5.58998,0.18254 -9.29634,0.94062 -13.777,2.81785 -6.60234,2.76615 -12.10826,6.72848 -15.67,11.27696 -0.64653,0.82566 -1.49316,1.86332 -1.88139,2.3059 -0.91748,1.04594 -2.87053,4.8736 -3.67351,7.19945 -0.3474,1.00623 -0.71829,1.92728 -0.82424,2.04678 -0.61838,0.69751 0.0262,0.81261 3.80949,0.68036 1.76091,-0.0616 7.93555,-0.20935 13.72142,-0.32843 z"
       id="path293"
       clip-path="url(#clipPath5539)"
       transform="matrix(1.001351,0,0,0.99940386,-326.14835,-54.615763)" />
  </g>
</svg>
