<?xml version="1.0" encoding="UTF-8" standalone="no"?>
<svg
   version="1.1"
   id="svg2"
   width="900"
   height="410"
   viewBox="0 0 900 410"
   xmlns="http://www.w3.org/2000/svg"
   xmlns:svg="http://www.w3.org/2000/svg">
  <defs
     id="defs6" />
  <g
     id="g8">
    <path
       style="fill:#e24352;fill-opacity:1;stroke-width:0.228695"
       d="m 145.57969,334.86131 c -0.88045,-0.10897 -2.04926,-0.3236 -2.59732,-0.47695 -1.95043,-0.54577 -4.93098,-3.25995 -5.74923,-5.23546 -0.37181,-0.89766 -0.12313,-2.35261 0.95432,-5.5834 1.40497,-4.21292 2.2012,-5.55221 11.97749,-20.14688 14.38242,-21.47099 16.94154,-26.06062 20.08449,-36.0202 2.71961,-8.61806 3.95174,-16.87069 3.7383,-25.03852 -0.14685,-5.61941 -0.57169,-9.17352 -1.68176,-14.06911 -2.37314,-10.46596 -8.4837,-24.45519 -16.43306,-37.62108 -1.93739,-3.20877 -8.89639,-13.46559 -9.69521,-14.2897 -0.28792,-0.29703 -0.31252,-0.26872 -0.19866,0.2287 0.84175,3.67702 0.8957,4.16765 0.90502,8.22915 0.0194,8.43866 -1.26374,18.76568 -3.93552,31.67491 -4.23872,20.48025 -10.03948,35.48212 -17.82543,46.09989 -1.71562,2.33959 -2.72314,3.62344 -7.43494,9.47411 -3.98819,4.95213 -12.91639,13.45813 -18.761341,17.87409 -10.156375,7.67336 -19.857325,11.50716 -29.239927,11.55553 -3.94514,0.0204 -6.01511,-0.46173 -9.57492,-2.22992 -3.34479,-1.6614 -6.874126,-4.51524 -11.613796,-9.391 -8.63166,-8.87954 -13.89011,-17.35586 -18.03178,-29.06612 -5.17794,-14.64029 -6.59443,-27.78602 -4.60094,-42.69897 0.81436,-6.09211 2.29408,-12.66108 4.71752,-20.94274 2.83528,-9.68899 7.24627,-18.04112 14.35007,-27.1716 2.8784,-3.69955 8.95997,-9.94904 13.286886,-13.65371 3.07845,-2.63574 10.17673,-7.84073 10.17673,-7.46235 0,0.0926 -0.41864,1.02251 -0.93031,2.06644 -3.10208,6.32901 -4.28277,13.41352 -4.02508,24.15172 0.1415,5.89632 0.36534,8.55486 1.06868,12.69283 1.21031,7.12048 3.87368,12.58153 8.236755,16.88882 4.561407,4.50309 9.538627,6.11089 16.435137,5.30912 5.46223,-0.63506 9.355675,-2.21043 12.428176,-5.02876 1.6267,-1.49212 4.88842,-5.77473 5.84786,-7.67816 1.30454,-2.58809 2.11013,-5.89916 3.25251,-13.36832 1.02421,-6.6965 1.06,-17.7157 0.11259,-34.6586 -0.71461,-12.77956 -0.67292,-17.1156 0.23113,-24.0381 0.74222,-5.68336 2.22713,-12.09227 4.12911,-17.82135 1.06249,-3.20036 1.76268,-5.01553 3.70234,-9.597974 0.86738,-2.04917 5.68162,-11.59645 6.97702,-13.83633 1.94458,-3.3624 5.39192,-8.61396 7.43135,-11.320632 5.8666,-7.785983 16.43084,-18.055234 27.16141,-26.40297 8.09604,-6.298253 16.61081,-12.341936 21.68759,-15.393609 2.88093,-1.73173 11.28674,-6.036333 11.44072,-5.858776 0.041,0.0472 -0.93842,2.144136 -2.17637,4.659838 -3.50464,7.121936 -8.49987,18.553236 -9.69384,22.183862 -0.16546,0.50314 -0.72998,2.098314 -1.25448,3.544842 -7.43834,20.514265 -10.38613,41.847045 -8.10588,58.661449 1.12691,8.30972 3.30931,15.58604 6.61052,22.04013 1.45807,2.8506 4.66334,7.80871 6.68698,10.34383 5.30971,6.65168 13.23838,13.108 20.64216,16.80886 3.92397,1.96142 7.09365,2.7784 9.53934,2.45875 1.42176,-0.18584 3.63232,-1.18034 4.69221,-2.11095 5.83404,-5.12257 6.99165,-21.06008 3.36582,-46.33882 -0.65735,-4.58284 -1.28522,-8.2067 -2.03816,-11.76369 -0.36112,-1.70598 -0.7764,-3.66782 -0.92281,-4.35964 -0.14641,-0.69182 -0.5712,-2.321624 -0.94399,-3.621774 -0.37276,-1.30016 -0.63866,-2.48123 -0.59086,-2.62463 0.0953,-0.28589 6.35832,5.589384 10.34719,9.706594 20.04366,20.68855 34.4029,45.08437 42.2968,71.86072 2.3685,8.03398 4.38634,17.92771 5.13812,25.19259 0.958,9.25799 0.90961,20.87976 -0.12141,29.1592 -2.797,22.46035 -11.37882,43.44663 -24.14834,59.05321 -0.79383,0.97019 -2.30618,2.82266 -3.36079,4.1166 -2.97876,3.65472 -10.38753,10.82986 -13.998,13.55655 -8.87041,6.69912 -18.54515,11.53857 -34.77661,17.39581 -8.96274,3.23427 -16.14643,5.1683 -30.14998,8.11706 -8.46666,1.78284 -9.13721,1.86083 -16.6944,1.94163 -3.7105,0.0397 -7.46674,-0.0172 -8.3472,-0.12604 z M 465.55391,304.0938 c -10.49492,-2.08612 -17.88716,-11.54278 -17.22949,-22.0412 0.19322,-3.08445 0.85418,-5.44798 2.35313,-8.41463 3.00561,-5.94853 8.46622,-10.03863 14.90033,-11.1607 10.0466,-1.75205 19.67529,3.54673 23.4385,12.89854 3.44701,8.56598 0.89999,18.50077 -6.21083,24.22576 -4.7916,3.85776 -11.56733,5.62213 -17.25164,4.49223 z m 6.84926,-14.52354 c 3.05594,-1.47943 4.60815,-5.01891 3.64857,-8.31986 -0.31031,-1.06751 -0.66018,-1.6052 -1.80059,-2.76723 -1.17984,-1.20219 -1.64124,-1.50717 -2.7718,-1.83213 -5.04782,-1.45085 -9.91622,2.88958 -8.84481,7.88561 0.61856,2.88438 2.39116,4.77953 5.16996,5.52733 1.17079,0.31505 3.42876,0.0727 4.59867,-0.49372 z m 329.81842,14.41828 c -1.69745,-0.26994 -4.38159,-1.3222 -6.33913,-2.48521 -1.78403,-1.05993 -4.30592,-3.64109 -5.49258,-5.62165 -0.69542,-1.16072 -2.07575,-4.60404 -2.07575,-5.17812 0,-0.1198 0.283,-0.32028 0.6289,-0.44555 0.34589,-0.12527 0.83472,-0.32666 1.08628,-0.44755 0.25156,-0.12087 2.38511,-0.88365 4.74119,-1.69505 l 4.28383,-1.47529 1.09039,1.63129 c 0.59974,0.89718 1.41719,1.95973 1.8166,2.36118 0.94079,0.94563 2.87761,1.85421 4.37657,2.05307 1.02538,0.13602 1.29462,0.0836 1.98513,-0.38669 1.91438,-1.30379 0.34239,-2.81959 -5.02967,-4.84988 -7.16775,-2.70892 -9.42263,-4.11307 -11.40762,-7.10368 -1.95796,-2.94993 -2.02174,-7.16328 -0.16415,-10.84332 0.82966,-1.64359 3.40282,-4.12823 5.22733,-5.04746 6.77776,-3.41483 15.78241,-2.4843 21.28264,2.19933 1.7091,1.45536 4.6182,5.70549 4.61351,6.74024 -0.002,0.30691 -2.45796,1.246 -7.84907,3.00054 l -3.16224,1.02912 -0.49342,-0.61023 c -1.97851,-2.44698 -4.39199,-3.94717 -5.78687,-3.59706 -0.85478,0.21454 -1.68838,0.81185 -1.68838,1.20982 0,0.60601 1.57388,1.80873 3.15342,2.40979 5.35942,2.0394 6.74993,2.60618 8.30815,3.38653 4.26939,2.13809 6.23926,4.31062 7.1786,7.91724 1.40652,5.40017 -1.5743,10.94912 -7.48275,13.92959 -2.6688,1.34624 -5.1534,1.94031 -8.52747,2.0389 -1.63515,0.0478 -3.55818,-0.006 -4.27344,-0.1199 z m -476.01923,-0.171 c -0.28038,-0.18529 -0.43646,-15.29184 -0.3426,-33.16015 l 0.0423,-8.06165 h 6.47398 c 4.82557,0 6.56997,0.0728 6.8511,0.28587 0.45987,0.34858 3.01166,5.32339 5.42553,10.57736 0.98245,2.13834 1.93495,3.9181 2.11666,3.95503 0.27958,0.0568 0.35205,-0.96349 0.4711,-6.63229 0.0774,-3.68469 0.22915,-7.00818 0.33725,-7.38553 0.18387,-0.64189 0.29129,-0.69799 1.66693,-0.8705 2.36054,-0.29605 11.43479,-0.036 11.69543,0.33521 0.13145,0.18721 0.16418,4.09136 0.084,10.02633 -0.0722,5.34585 -0.1315,14.531 -0.13182,20.41144 v 10.69171 h -6.60488 -6.60487 l -0.57731,-0.75693 c -0.31754,-0.4163 -1.37109,-2.14013 -2.34126,-3.83071 -3.13578,-5.46433 -4.94848,-8.48719 -5.0366,-8.39907 -0.0474,0.0474 -0.1472,2.90873 -0.22182,6.35859 -0.0746,3.44988 -0.16425,6.30103 -0.19915,6.33593 -0.16171,0.16171 -12.86434,0.27741 -13.10348,0.11936 z m 259.71997,-0.0996 c -0.0114,-4.41202 -0.30793,-29.82211 -0.34852,-29.87155 -0.0316,-0.0385 -2.15276,-0.0651 -4.71372,-0.0592 -2.561,0.006 -4.78138,-0.0694 -4.93423,-0.16732 -0.20347,-0.13036 -0.2844,-1.56805 -0.30213,-5.36791 -0.0133,-2.85442 0.0248,-5.26907 0.0846,-5.36586 0.12598,-0.20377 30.44765,-0.33569 32.53347,-0.14157 l 1.39353,0.1297 -0.0926,5.17803 c -0.0509,2.84791 -0.13374,5.30465 -0.18401,5.45941 -0.0678,0.20875 -1.37759,0.29731 -5.07432,0.34305 l -4.98291,0.0617 -0.0594,14.97982 -0.0594,14.97983 -6.62978,0.0706 c -5.3463,0.057 -6.62996,0.0128 -6.63058,-0.2287 z m 98.48956,-1.08565 c -0.0782,-0.74872 -0.14543,-10.00041 -0.14929,-20.55928 -0.005,-15.24528 0.0523,-19.21495 0.28106,-19.28046 0.50346,-0.14416 27.11404,-0.0887 27.25999,0.0568 0.0769,0.0767 0.0599,2.54662 -0.0377,5.48879 l -0.17746,5.34945 -6.50989,0.0608 c -3.58044,0.0334 -6.597,0.14794 -6.70348,0.25442 -0.32371,0.32373 -0.23363,3.27394 0.10655,3.48964 0.16509,0.1047 2.62566,0.19195 5.46796,0.19387 l 5.16779,0.003 -0.04,2.34417 c -0.022,1.28929 -0.0578,3.8107 -0.0794,5.60314 l -0.0394,3.25904 h -5.35308 -5.35304 l -0.088,1.31503 c -0.0484,0.72325 -0.0248,1.5723 0.0524,1.88676 l 0.14032,0.57175 6.76219,0.0605 6.76222,0.0605 -0.0649,1.31165 c -0.0357,0.72141 -0.0759,3.23894 -0.0894,5.59449 l -0.0245,4.28281 -13.57433,0.007 -13.57433,0.007 -0.14229,-1.36129 z M 326.77911,238.21804 c -0.29949,-0.0938 -0.40839,-0.51915 -0.5102,-1.99298 -0.43527,-6.29973 -0.59071,-73.60232 -0.17706,-76.65852 1.38213,-10.21158 4.49693,-18.69454 10.07215,-27.43072 3.89178,-6.09826 9.48652,-12.14763 15.31112,-16.55535 4.55433,-3.44643 9.20447,-6.14418 15.24821,-8.84618 5.02969,-2.24862 12.54449,-4.16937 19.28558,-4.92935 2.93154,-0.33047 12.94343,-0.20725 13.31454,0.16389 0.18069,0.18071 0.23123,4.54913 0.17758,15.35576 -0.0412,8.30676 -0.12642,15.15133 -0.18931,15.21015 -0.0629,0.0588 -0.78326,0.004 -1.60083,-0.12137 -0.81758,-0.12556 -2.87579,-0.23453 -4.57381,-0.24215 -12.34401,-0.0554 -24.76281,6.85559 -31.89006,17.74652 -3.32051,5.074 -5.09158,9.34182 -6.13286,14.77862 -0.49171,2.56724 -0.50685,3.10178 -0.50909,17.96884 -0.002,8.42758 0.0894,24.35365 0.20154,35.39126 l 0.20388,20.06839 h -2.14774 c -1.18126,0 -7.44765,0.0481 -13.92531,0.10624 -6.47765,0.0581 -11.94889,0.052 -12.15833,-0.0135 z m 285.14832,-0.79198 c -9.23338,-0.54897 -18.59915,-3.13821 -26.69039,-7.37871 -9.68971,-5.07824 -18.61055,-12.9901 -24.41488,-21.65344 -5.58444,-8.33517 -8.91831,-15.89862 -10.67461,-24.21726 -3.15995,-14.96686 -1.18926,-30.1924 5.68106,-43.89197 5.75186,-11.46931 14.50986,-20.9981 25.40635,-27.64233 8.89339,-5.42283 18.28613,-8.49013 28.97011,-9.46048 3.47687,-0.31578 11.51083,-0.18082 14.36672,0.24133 10.52099,1.55525 19.81945,5.06355 28.47527,10.74371 0.88229,0.57897 1.73967,1.13643 1.90529,1.2388 0.24694,0.15263 0.29321,-1.12432 0.25721,-7.1001 -0.0242,-4.00738 -0.0325,-14.182534 -0.0185,-22.611374 l 0.0253,-15.325204 2.80146,-1.466809 c 2.41556,-1.264761 9.92361,-5.274933 21.71567,-11.598685 1.724,-0.924547 3.16475,-1.680987 3.20166,-1.680987 0.0369,0 0.0671,16.800843 0.0671,37.335205 0,20.534374 0.0352,47.678164 0.0782,60.319534 0.0528,15.51489 -0.003,23.76471 -0.1711,25.38567 -0.79321,7.63916 -2.50357,13.78772 -5.75738,20.69731 -4.45507,9.46043 -12.46612,18.94648 -21.27404,25.19101 -13.08852,9.27935 -28.49851,13.79351 -43.95048,12.87478 z m 9.90007,-28.46356 c 9.09845,-1.47461 17.36609,-6.14166 24.10015,-13.60447 8.72942,-9.67409 11.5679,-24.81726 7.07324,-37.73545 -3.20707,-9.21751 -10.78236,-18.06258 -18.96407,-22.14288 -4.44962,-2.21905 -7.16242,-3.11216 -11.98063,-3.94427 -2.46579,-0.42583 -3.42434,-0.47698 -6.97505,-0.37218 -6.08856,0.17974 -10.26944,1.17683 -15.569,3.71306 -7.6188,3.64615 -13.577,9.32244 -17.99455,17.14313 -6.79439,12.02853 -6.18589,27.2125 1.56525,39.05834 6.84534,10.46152 17.08075,16.83737 29.25401,18.22294 2.34813,0.26726 6.7149,0.11166 9.49065,-0.33822 z m 132.86914,28.55424 c -18.2253,-1.25389 -33.33709,-8.32441 -45.62758,-21.34823 -4.55325,-4.82496 -8.43376,-10.49878 -11.80845,-17.26564 -6.66768,-13.36982 -8.34748,-29.4327 -4.64942,-44.45891 5.01656,-20.38347 19.7243,-37.89114 38.63217,-45.98655 9.37414,-4.01355 18.3963,-5.71401 28.79967,-5.4281 9.98323,0.27437 18.90331,2.53118 27.81372,7.03697 2.99369,1.51385 6.79883,3.73496 8.86176,5.17275 l 0.51455,0.35862 0.002,-22.611994 0.002,-22.611984 1.53945,-0.800452 c 1.29853,-0.675188 16.9874,-9.067195 24.01285,-12.844525 1.29937,-0.698628 2.11037,-1.021071 2.10241,-0.835874 -0.007,0.165817 0.0311,27.110785 0.085,59.877729 0.0551,33.49782 0.009,60.82764 -0.10491,62.43501 -0.21124,2.9767 -0.92338,7.60252 -1.44351,9.37669 -0.16594,0.56603 -0.53145,1.85246 -0.81224,2.85874 -2.00474,7.18475 -7.31288,16.89792 -12.44053,22.76453 -3.52716,4.03545 -6.8408,7.23221 -9.85723,9.50953 -0.6277,0.47389 -1.19273,0.92783 -1.25562,1.00874 -0.20843,0.26815 -4.88437,3.32818 -6.87951,4.50207 -4.9257,2.89818 -11.64206,5.66233 -17.62099,7.25202 -5.84987,1.55541 -14.29475,2.42211 -19.86544,2.03886 z m 8.67286,-28.46471 c 6.38645,-0.88828 13.08051,-3.80711 18.76999,-8.18426 2.68158,-2.06306 3.90795,-3.23034 5.90867,-5.62409 5.27533,-6.31161 7.96532,-12.72474 8.96929,-21.38341 0.8991,-7.75419 -1.50185,-17.49154 -6.02707,-24.44341 -6.31775,-9.70567 -15.16332,-15.70462 -26.23136,-17.78978 -3.37035,-0.63494 -10.74111,-0.57348 -13.92258,0.11608 -6.69384,1.4509 -12.33655,4.14983 -17.6367,8.4357 -6.48737,5.24592 -11.94715,14.12058 -13.59231,22.09384 -2.56758,12.44375 1.3111,25.63572 10.25624,34.88304 6.78077,7.00984 14.94382,11.05404 24.51658,12.14619 2.0259,0.23113 6.40646,0.10937 8.98925,-0.2499 z m -296.02238,28.14521 c -2.73121,-0.27739 -5.1929,-0.75557 -9.5738,-1.85971 -14.45488,-3.64312 -25.32267,-10.33373 -34.14065,-21.01825 -10.6414,-12.89391 -16.18829,-26.94071 -16.69925,-42.28862 -0.47263,-14.19756 4.66091,-30.41545 13.21151,-41.73769 3.90846,-5.17535 6.93066,-8.34281 11.33084,-11.87544 12.8503,-10.31674 27.3729,-15.46055 43.62638,-15.45227 10.01941,0.005 19.62934,2.43493 30.06318,7.60135 6.9382,3.4355 10.17243,5.79563 15.96255,11.64842 4.12492,4.16956 5.35836,5.60831 7.70955,8.99275 7.84476,11.29227 11.70035,22.86984 12.37627,37.16369 0.20968,4.43428 -0.36111,11.77367 -0.96242,12.375 -0.22211,0.22212 -7.14807,0.53136 -17.21805,0.76884 -3.20738,0.0756 -9.22765,0.2363 -13.37839,0.35701 -4.15072,0.12073 -13.51559,0.37314 -20.81082,0.56093 -19.0951,0.49152 -22.51629,0.59167 -23.66946,0.69291 -0.56601,0.0497 -5.60863,0.15433 -11.20583,0.23252 -9.36636,0.13084 -16.13962,0.39073 -16.37726,0.62837 -0.0531,0.0532 0.0589,0.39497 0.24909,0.75958 0.19014,0.36462 0.34832,0.81734 0.3515,1.006 0.009,0.55408 2.18656,4.50282 3.83757,6.96014 2.69761,4.01508 7.69133,8.7585 11.89863,11.30225 3.84083,2.32221 9.56947,4.2915 14.79101,5.08458 2.7137,0.41219 8.02062,0.36028 10.97713,-0.10737 8.71931,-1.37918 16.2844,-5.04975 22.32723,-10.83312 1.78665,-1.70994 1.19619,-1.73946 6.55788,0.32787 6.57501,2.53514 13.26571,5.09932 17.53496,6.72016 2.26177,0.8587 4.1497,1.67341 4.19539,1.8105 0.24118,0.72354 -4.69478,7.03628 -8.41586,10.76329 -8.58128,8.595 -20.36199,15.1172 -32.36591,17.91883 -5.68755,1.32745 -7.62525,1.55226 -14.06446,1.63173 -3.33316,0.0411 -6.98649,-0.0192 -8.11851,-0.13425 z m -12.34928,-79.8059 c 5.78586,-0.11908 13.96727,-0.31862 18.18089,-0.44341 4.21362,-0.12482 13.26976,-0.33124 20.12475,-0.45874 15.08275,-0.28056 17.15179,-0.38605 17.15179,-0.87448 0,-0.70456 -2.72883,-5.93141 -4.0849,-7.82428 -3.43925,-4.80073 -8.88731,-9.69401 -13.19059,-11.8474 -6.92382,-3.46473 -12.69836,-4.78638 -19.88671,-4.5516 -5.58998,0.18255 -9.29634,0.94066 -13.777,2.81796 -6.60234,2.76626 -12.10826,6.72875 -15.67,11.27742 -0.64653,0.82569 -1.49316,1.86339 -1.88139,2.30599 -0.91748,1.04598 -2.87053,4.87379 -3.67351,7.19974 -0.3474,1.00627 -0.71829,1.92736 -0.82424,2.04686 -0.61838,0.69754 0.0262,0.81264 3.80949,0.68039 1.76091,-0.0616 7.93555,-0.20936 13.72142,-0.32845 z"
       id="path293" />
  </g>
</svg>
